<?xml version="1.0" encoding="utf-8"?>
<!-- Generator: Adobe Illustrator 16.0.0, SVG Export Plug-In . SVG Version: 6.00 Build 0)  -->
<!DOCTYPE svg PUBLIC "-//W3C//DTD SVG 1.1//EN" "http://www.w3.org/Graphics/SVG/1.1/DTD/svg11.dtd">
<svg version="1.1" id="Capa_1" xmlns="http://www.w3.org/2000/svg" xmlns:xlink="http://www.w3.org/1999/xlink" x="0px" y="0px"
	 width="700px" height="300px" viewBox="0 0 700 300" enable-background="new 0 0 700 300" xml:space="preserve">
<g>
	<path fill="#FFFFFF" d="M437.095,185.84c-6.142-6.396-13.55-9.814-21.401-9.814c-7.788,0-15.26,3.355-21.654,9.75l-20.008,19.945
		c-1.646-0.887-3.293-1.709-4.876-2.532c-2.279-1.14-4.433-2.216-6.269-3.356c-18.742-11.903-35.774-27.416-52.11-47.487
		c-7.915-10.004-13.233-18.425-17.096-26.973c5.192-4.749,10.004-9.688,14.69-14.436c1.772-1.773,3.545-3.609,5.318-5.382
		c13.297-13.296,13.297-30.519,0-43.815l-17.286-17.286c-1.962-1.962-3.989-3.989-5.888-6.015
		c-3.799-3.926-7.788-7.978-11.904-11.777c-6.142-6.078-13.486-9.308-21.211-9.308c-7.725,0-15.196,3.229-21.528,9.308
		c-0.063,0.063-0.063,0.063-0.127,0.127l-21.528,21.718c-8.104,8.104-12.727,17.982-13.74,29.442
		c-1.52,18.488,3.926,35.71,8.104,46.981c10.258,27.669,25.58,53.313,48.438,80.792c27.732,33.115,61.101,59.266,99.217,77.69
		c14.563,6.901,34.002,15.069,55.72,16.462c1.329,0.063,2.723,0.127,3.988,0.127c14.627,0,26.91-5.256,36.534-15.703
		c0.063-0.126,0.19-0.189,0.253-0.316c3.293-3.988,7.092-7.598,11.081-11.46c2.723-2.597,5.509-5.319,8.231-8.168
		c6.268-6.521,9.561-14.12,9.561-21.907c0-7.852-3.355-15.387-9.751-21.719L437.095,185.84z M459.762,252.512
		C459.698,252.512,459.698,252.576,459.762,252.512c-2.469,2.66-5.002,5.066-7.725,7.725c-4.115,3.926-8.294,8.042-12.22,12.664
		c-6.396,6.838-13.93,10.067-23.808,10.067c-0.949,0-1.963,0-2.912-0.063c-18.806-1.203-36.281-8.548-49.388-14.816
		c-35.837-17.349-67.306-41.979-93.456-73.194c-21.591-26.023-36.027-50.083-45.588-75.917c-5.889-15.766-8.042-28.049-7.092-39.637
		c0.633-7.408,3.482-13.55,8.738-18.805l21.591-21.591c3.103-2.913,6.395-4.496,9.624-4.496c3.989,0,7.218,2.406,9.244,4.432
		c0.063,0.063,0.127,0.127,0.19,0.19c3.862,3.609,7.535,7.345,11.397,11.334c1.963,2.026,3.989,4.052,6.015,6.142l17.286,17.286
		c6.712,6.711,6.712,12.917,0,19.628c-1.836,1.836-3.609,3.672-5.445,5.445c-5.318,5.445-10.384,10.51-15.893,15.449
		c-0.126,0.126-0.253,0.19-0.316,0.316c-5.445,5.445-4.432,10.764-3.292,14.373c0.063,0.19,0.126,0.38,0.19,0.57
		c4.496,10.891,10.827,21.148,20.451,33.369l0.063,0.063c17.476,21.528,35.901,38.307,56.226,51.16
		c2.596,1.646,5.256,2.977,7.788,4.242c2.279,1.141,4.433,2.217,6.269,3.356c0.253,0.126,0.506,0.316,0.76,0.442
		c2.152,1.077,4.179,1.584,6.268,1.584c5.256,0,8.549-3.293,9.625-4.369l21.654-21.654c2.152-2.153,5.572-4.749,9.561-4.749
		c3.926,0,7.155,2.47,9.118,4.622c0.063,0.063,0.063,0.063,0.126,0.127l34.889,34.887
		C466.221,239.152,466.221,245.801,459.762,252.512z"/>
	<path fill="#FFFFFF" d="M362.127,71.362c16.59,2.786,31.658,10.637,43.688,22.667s19.818,27.1,22.668,43.688
		c0.696,4.179,4.306,7.092,8.421,7.092c0.507,0,0.95-0.063,1.457-0.127c4.685-0.76,7.787-5.192,7.027-9.877
		c-3.419-20.071-12.916-38.37-27.416-52.87s-32.799-23.997-52.869-27.417c-4.686-0.76-9.055,2.343-9.878,6.965
		C354.402,66.107,357.441,70.603,362.127,71.362z"/>
	<path fill="#FFFFFF" d="M499.651,132.336c-5.635-33.051-21.211-63.127-45.145-87.061c-23.934-23.934-54.01-39.51-87.062-45.145
		c-4.621-0.823-8.99,2.343-9.813,6.965c-0.761,4.686,2.343,9.054,7.028,9.877c29.506,5.002,56.415,18.995,77.816,40.333
		c21.401,21.401,35.331,48.311,40.333,77.817c0.696,4.179,4.306,7.091,8.421,7.091c0.507,0,0.95-0.063,1.456-0.126
		C497.309,141.391,500.475,136.958,499.651,132.336z"/>
</g>
</svg>
