<?xml version="1.0" encoding="utf-8"?>
<!-- Generator: Adobe Illustrator 16.0.0, SVG Export Plug-In . SVG Version: 6.00 Build 0)  -->
<!DOCTYPE svg PUBLIC "-//W3C//DTD SVG 1.1//EN" "http://www.w3.org/Graphics/SVG/1.1/DTD/svg11.dtd">
<svg version="1.1" xmlns="http://www.w3.org/2000/svg" xmlns:xlink="http://www.w3.org/1999/xlink" x="0px" y="0px" width="300px"
	 height="300px" viewBox="0 0 300 300" enable-background="new 0 0 300 300" xml:space="preserve">
<g id="circulo">
	<circle fill="#4C7089" cx="150" cy="150" r="149.998"/>
</g>
<g id="Capa_1">
	<g>
		<g>
			<path fill="#6A9923" d="M157.535,172.609h-7.538l0,0c0-20.813,16.872-37.681,37.682-37.681h7.535l0,0
				C195.215,155.738,178.346,172.609,157.535,172.609z"/>
			<path fill="#6A9923" d="M157.535,119.856h-7.538l0,0c0-20.811,16.872-37.68,37.682-37.68h7.535l0,0
				C195.215,102.986,178.346,119.856,157.535,119.856z"/>
			<path fill="#6A9923" d="M149.998,67.104h7.538c14.566,0,26.375-11.81,26.375-26.376h-7.535
				C161.807,40.727,149.998,52.536,149.998,67.104z"/>
		</g>
		<path fill="#F2BB80" d="M105.012,183.008l-0.23-0.131l-26.425-29.361c-3.921-4.343-10.621-4.685-14.965-0.766
			c-0.02,0.018-0.039,0.037-0.058,0.053V97.888c0.135-6.177-4.543-11.401-10.698-11.945c-6.234-0.335-11.559,4.447-11.894,10.681
			c-0.011,0.207-0.017,0.415-0.017,0.623v71.317c-0.001,5.123,1.305,10.162,3.794,14.639l33.886,60.998v15.072h52.752v-31.18
			C131.157,209.463,121.18,192.262,105.012,183.008z"/>
		<g>
			<path fill="#88B337" d="M149.998,210.289c-2.08,0-3.767-1.688-3.767-3.77V63.335c0-2.081,1.688-3.768,3.767-3.768
				c2.083,0,3.768,1.687,3.768,3.768V206.52C153.766,208.602,152.08,210.289,149.998,210.289z"/>
			<path fill="#88B337" d="M104.782,134.928h7.536c20.811,0,37.68,16.869,37.68,37.681l0,0h-7.535
				C121.652,172.609,104.782,155.738,104.782,134.928L104.782,134.928z"/>
			<path fill="#88B337" d="M104.782,82.176h7.536c20.811,0,37.68,16.87,37.68,37.68l0,0h-7.535
				C121.652,119.856,104.782,102.986,104.782,82.176L104.782,82.176z"/>
			<path fill="#88B337" d="M149.998,67.104h-7.535c-14.567,0-26.376-11.81-26.376-26.376h7.536
				C138.189,40.727,149.998,52.536,149.998,67.104z"/>
		</g>
		<path fill="#E8A16D" d="M93.199,205.484c-1.062,0-2.074-0.447-2.789-1.232L59.54,170.295c-5.174-5.68-4.967-14.422,0.471-19.849
			c1.497-1.445,3.882-1.406,5.328,0.091c1.411,1.459,1.411,3.775,0,5.236c-2.588,2.584-2.686,6.75-0.223,9.453l30.868,33.953
			c1.4,1.541,1.288,3.924-0.251,5.324C95.04,205.133,94.137,205.484,93.199,205.484L93.199,205.484z"/>
		<path fill="#F2BB80" d="M168.838,228.094v31.18h52.754v-15.072l33.885-60.998c2.49-4.477,3.797-9.516,3.795-14.639V97.888
			c0.135-6.177-4.543-11.401-10.697-11.945c-6.234-0.335-11.559,4.447-11.895,10.681c-0.012,0.207-0.016,0.415-0.016,0.623v55.555
			c-4.314-3.953-11.018-3.66-14.971,0.654c-0.02,0.021-0.035,0.039-0.053,0.059l-26.426,29.361l-0.23,0.131
			C178.816,192.262,168.84,209.463,168.838,228.094L168.838,228.094z"/>
		<path fill="#E8A16D" d="M206.797,205.484c1.063,0,2.074-0.447,2.787-1.232l30.873-33.957c5.174-5.68,4.967-14.422-0.471-19.849
			c-1.496-1.445-3.881-1.406-5.326,0.091c-1.412,1.459-1.412,3.775,0,5.236c2.588,2.584,2.686,6.75,0.221,9.453l-30.867,33.953
			c-1.4,1.541-1.287,3.924,0.25,5.324C204.957,205.133,205.861,205.484,206.797,205.484L206.797,205.484z"/>
	</g>
</g>
</svg>
