<?xml version="1.0" encoding="utf-8"?>
<!-- Generator: Adobe Illustrator 16.0.0, SVG Export Plug-In . SVG Version: 6.00 Build 0)  -->
<!DOCTYPE svg PUBLIC "-//W3C//DTD SVG 1.1//EN" "http://www.w3.org/Graphics/SVG/1.1/DTD/svg11.dtd">
<svg version="1.1" xmlns="http://www.w3.org/2000/svg" xmlns:xlink="http://www.w3.org/1999/xlink" x="0px" y="0px" width="511px"
	 height="511px" viewBox="0 0 511 511" enable-background="new 0 0 511 511" xml:space="preserve">
<g id="Circulo">
	<ellipse fill="#4C7089" cx="255.5" cy="255.499" rx="255.512" ry="255.501"/>
</g>
<g id="Layer_1">
	<g>
		<path fill="#FF641A" d="M154.531,319.495l-56.577,99.712l67.737-14.066l23.726,66.874L255.5,355.836L154.531,319.495z"/>
		<path fill="#FF641A" d="M356.469,319.495L255.5,355.836l66.078,116.179l23.73-66.874l67.735,14.066L356.469,319.495z"/>
		<path fill="#FFDA2D" d="M255.5,38.985c-87.496,0-158.426,70.931-158.426,158.426c0,87.492,70.927,158.425,158.426,158.425
			c87.478,0,158.425-70.913,158.425-158.425C413.925,109.916,342.991,38.985,255.5,38.985z"/>
		<path fill="#FF641A" d="M330.83,175.452l-37.371,36.814l8.598,51.753L255.5,239.843l-46.562,24.177l8.602-51.753l-37.372-36.814
			l51.867-7.808l23.464-46.929l23.464,46.929L330.83,175.452z"/>
	</g>
</g>
</svg>
