<?xml version="1.0" encoding="utf-8"?>
<!-- Generator: Adobe Illustrator 16.0.0, SVG Export Plug-In . SVG Version: 6.00 Build 0)  -->
<!DOCTYPE svg PUBLIC "-//W3C//DTD SVG 1.1//EN" "http://www.w3.org/Graphics/SVG/1.1/DTD/svg11.dtd">
<svg version="1.1" id="Layer_1" xmlns="http://www.w3.org/2000/svg" xmlns:xlink="http://www.w3.org/1999/xlink" x="0px" y="0px"
	 width="300px" height="300px" viewBox="0 0 300 300" enable-background="new 0 0 300 300" xml:space="preserve">
<circle fill="#4C7089" cx="150" cy="150" r="150"/>
<path fill="#2B3B4E" d="M79.37,128.268v6.851l-0.708-7.323c0-0.945-0.709-1.654-1.654-1.89
	C78.425,125.905,79.37,126.851,79.37,128.268z"/>
<g>
	<path fill="#FF7058" d="M175.984,125.669c0.473,0,0.945,0.236,1.417,0.472c-0.235,0-0.708-0.236-0.944-0.236
		c-1.182,0-2.362,0.945-2.362,2.362l-0.709,7.559v-7.559C173.386,126.851,174.566,125.669,175.984,125.669z"/>
	<path fill="#FF7058" d="M238.582,128.74v37.559c0,2.599-2.361,4.725-5.196,4.252c-2.126-0.236-3.543-2.125-3.779-4.016
		l-3.544-38.503c0-1.181-1.181-2.362-2.361-2.362c-1.418,0-2.599,1.181-2.599,2.598v113.386c0,3.071-2.362,6.142-5.433,6.378
		c-3.544,0.473-6.379-2.126-6.852-5.433l-5.904-59.528c-0.236-1.417-1.182-2.361-2.6-2.361c-1.417,0-2.598,1.181-2.598,2.598
		l-5.197,59.292c-0.236,3.071-3.07,5.669-6.142,5.669h-1.181c-3.308,0-6.143-2.834-6.143-6.142V131.103l3.544,38.504
		c0.235,2.126,1.89,4.016,4.016,4.488c3.071,0.472,5.433-1.89,5.433-4.725v-40.63c0-12.52-5.433-23.622-14.173-31.417
		c5.905-4.252,13.229-6.85,21.023-7.086C220.866,89.527,238.582,107.008,238.582,128.74z"/>
	<circle fill="#FF7058" cx="200.078" cy="66.378" r="17.953"/>
</g>
<g>
	<path fill="#84DBFF" d="M108.662,129.449v39.921c0,2.599,2.126,4.725,4.724,4.725l0,0c2.362,0,4.488-1.89,4.725-4.252l3.543-38.977
		v110.787c0,3.071-2.362,6.142-5.433,6.378c-3.307,0.473-6.378-2.126-6.851-5.433l-6.142-59.528
		c-0.236-1.417-1.417-2.361-2.599-2.361c-1.417,0-2.598,0.944-2.598,2.361l-4.961,59.528c-0.236,3.071-3.071,5.669-6.142,5.669
		h-1.181c-3.307,0-6.142-2.834-6.142-6.142V128.268c0-1.417-1.181-2.598-2.599-2.598c-1.181,0-2.362,0.945-2.362,2.362
		l-3.779,38.504c-0.236,2.362-2.126,4.016-4.252,4.016l0,0c-2.362,0-4.488-1.889-4.488-4.488v-36.614
		c0-21.023,16.536-38.74,37.323-39.212c8.74-0.236,16.772,2.362,23.386,7.086C114.095,105.118,108.662,116.693,108.662,129.449z"/>
	<path fill="#84DBFF" d="M77.008,125.905c-0.945,0-1.653,0.473-2.126,1.181C75.118,126.378,75.827,125.669,77.008,125.905
		C76.771,125.669,76.771,125.669,77.008,125.905z"/>
	<path fill="#84DBFF" d="M127.323,128.268v7.559l-0.708-7.795c0-1.181-1.181-2.362-2.362-2.362c-0.236,0-0.708,0-0.945,0.236
		c0.472-0.236,0.945-0.472,1.417-0.472C126.142,125.669,127.323,126.851,127.323,128.268z"/>
	<circle fill="#84DBFF" cx="100.63" cy="66.378" r="17.953"/>
</g>
<g>
	<path fill="#FFFFFF" d="M149.292,86.929c-22.677,0.708-40.63,19.842-40.63,42.756v39.921c0,2.599,2.126,4.724,4.724,4.724l0,0
		c2.362,0,4.488-1.889,4.725-4.252l4.016-41.811c0.236-1.417,1.181-2.362,2.599-2.362c1.417,0,2.598,1.181,2.598,2.599v123.543
		c0,3.779,3.071,6.615,6.614,6.615h1.417c3.543,0,6.378-2.6,6.614-6.143l5.433-64.725c0.236-1.417,1.417-2.598,2.835-2.598
		c1.417,0,2.834,1.181,2.834,2.598l6.615,64.961c0.472,3.543,3.779,6.378,7.322,5.906c3.543-0.473,5.906-3.544,5.906-7.088V128.268
		c0-1.417,1.181-2.598,2.598-2.598c1.418,0,2.599,0.945,2.599,2.362l4.016,41.812c0.236,2.126,1.89,4.016,4.016,4.487
		c3.071,0.473,5.433-1.889,5.433-4.724V128.74C192.283,105.118,172.914,86.221,149.292,86.929z"/>
	<path fill="#FFFFFF" d="M123.307,125.905c-0.708,0.473-1.181,1.181-1.181,2.126l-0.473,2.835v-2.599
		C121.653,127.323,122.362,126.378,123.307,125.905z"/>
	<circle fill="#FFFFFF" cx="150.473" cy="61.181" r="19.606"/>
</g>
</svg>
