<?xml version="1.0" encoding="utf-8"?>
<!-- Generator: Adobe Illustrator 16.0.0, SVG Export Plug-In . SVG Version: 6.00 Build 0)  -->
<!DOCTYPE svg PUBLIC "-//W3C//DTD SVG 1.1//EN" "http://www.w3.org/Graphics/SVG/1.1/DTD/svg11.dtd">
<svg version="1.1" id="Layer_1" xmlns="http://www.w3.org/2000/svg" xmlns:xlink="http://www.w3.org/1999/xlink" x="0px" y="0px"
	 width="700px" height="300px" viewBox="0 0 700 300" enable-background="new 0 0 700 300" xml:space="preserve">
<g>
	<g>
		<path fill="#FFFFFF" d="M349.998,0c-82.84,0-149.997,67.159-149.997,149.999c0,82.837,67.157,150.001,149.997,150.001
			c82.839,0,150.001-67.164,150.001-150.001C499.999,67.159,432.837,0,349.998,0z M350,52.687l88.764,55.351H261.237L350,52.687z
			 M439.87,196.425h-0.009c0,8.878-7.195,16.072-16.072,16.072H276.212c-8.878,0-16.072-7.194-16.072-16.072v-84.866
			c0-0.939,0.096-1.852,0.252-2.749l84.809,52.883c0.104,0.065,0.215,0.109,0.322,0.17c0.112,0.062,0.226,0.121,0.34,0.178
			c0.599,0.31,1.216,0.559,1.847,0.722c0.065,0.019,0.13,0.026,0.195,0.041c0.692,0.163,1.393,0.265,2.093,0.265h0.005
			c0.005,0,0.01,0,0.01,0c0.7,0,1.401-0.099,2.093-0.265c0.064-0.017,0.13-0.022,0.195-0.041c0.63-0.163,1.244-0.412,1.847-0.722
			c0.114-0.057,0.228-0.116,0.34-0.178c0.106-0.061,0.218-0.104,0.322-0.17l84.809-52.883c0.156,0.897,0.252,1.808,0.252,2.749
			V196.425L439.87,196.425z"/>
	</g>
</g>
</svg>
