<?xml version="1.0" encoding="utf-8"?>
<!-- Generator: Adobe Illustrator 16.0.0, SVG Export Plug-In . SVG Version: 6.00 Build 0)  -->
<!DOCTYPE svg PUBLIC "-//W3C//DTD SVG 1.1//EN" "http://www.w3.org/Graphics/SVG/1.1/DTD/svg11.dtd">
<svg version="1.1" id="Layer_1" xmlns="http://www.w3.org/2000/svg" xmlns:xlink="http://www.w3.org/1999/xlink" x="0px" y="0px"
	 width="700px" height="300px" viewBox="0 0 700 300" enable-background="new 0 0 700 300" xml:space="preserve">
<g>
	<g>
		<g>
			<circle fill="#FFFFFF" cx="350.001" cy="226.085" r="11.718"/>
			<path fill="#FFFFFF" d="M382.691,68.248h-65.382c-3.665,0-6.647,2.843-6.647,6.331v123.592c0,3.491,2.98,6.331,6.647,6.331
				h65.382c3.664,0,6.646-2.843,6.646-6.331V74.579C389.336,71.088,386.355,68.248,382.691,68.248z"/>
			<path fill="#FFFFFF" d="M349.996,0c-82.839,0-149.995,67.161-149.995,149.997S267.157,300,349.996,300
				s150.003-67.163,150.003-150.003S432.835,0,349.996,0z M408.354,224.021c0,11.457-9.289,20.748-20.748,20.748h-75.214
				c-11.458,0-20.749-9.289-20.749-20.748V75.323c0-11.458,9.29-20.749,20.749-20.749h75.214c11.458,0,20.748,9.29,20.748,20.749
				V224.021z"/>
		</g>
	</g>
</g>
</svg>
