<?xml version="1.0" encoding="utf-8"?>
<!-- Generator: Adobe Illustrator 16.0.0, SVG Export Plug-In . SVG Version: 6.00 Build 0)  -->
<!DOCTYPE svg PUBLIC "-//W3C//DTD SVG 1.1//EN" "http://www.w3.org/Graphics/SVG/1.1/DTD/svg11.dtd">
<svg version="1.1" id="Layer_1" xmlns="http://www.w3.org/2000/svg" xmlns:xlink="http://www.w3.org/1999/xlink" x="0px" y="0px"
	 width="700px" height="300px" viewBox="0 0 700 300" enable-background="new 0 0 700 300" xml:space="preserve">
<g>
	<g>
		<path fill="#FFFFFF" d="M349.998,0c-82.84,0-149.997,67.159-149.997,149.999c0,82.837,67.157,150.001,149.997,150.001
			c82.839,0,150.001-67.164,150.001-150.001C499.999,67.157,432.837,0,349.998,0z M350.455,220.766v-0.002h-0.916h-64.073
			c0-46.857,41.152-46.846,50.285-59.098l1.045-5.588c-12.83-6.501-21.887-22.178-21.887-40.512
			c0-24.154,15.712-43.739,35.089-43.739s35.089,19.584,35.089,43.739c0,18.178-8.896,33.756-21.556,40.361l1.19,6.349
			c10.019,11.658,49.803,12.419,49.803,58.489H350.455z"/>
	</g>
</g>
</svg>
